<svg xmlns="http://www.w3.org/2000/svg" viewBox="0 0 25 25" id="female"><path d="M13 13.8a.5.5 0 0 1-.5.5 4.173 4.173 0 0 1-3.347-2.417.5.5 0 0 1 .893-.45A3.239 3.239 0 0 0 12.5 13.3a.5.5 0 0 1 .5.5Zm5.751 2.138a21.15 21.15 0 0 1-3.177-.777 4.342 4.342 0 0 0 2.652-1.249.5.5 0 0 0-.141-.775c-.98-.515-1.045-1.36-1.07-2.694-.004-.211-.008-.423-.017-.633-.024-.508-.03-.946-.035-1.333-.02-1.517-.03-2.433-1.135-3.665A4.257 4.257 0 0 0 12.5 3.523a4.258 4.258 0 0 0-3.328 1.289C8.068 6.043 8.056 6.959 8.037 8.477c-.005.387-.01.825-.035 1.333-.01.21-.013.422-.017.633-.025 1.335-.09 2.179-1.07 2.694a.5.5 0 0 0-.14.775 4.337 4.337 0 0 0 2.644 1.248 20.158 20.158 0 0 1-3.17.778 2.628 2.628 0 0 0-2.134 2.578v2.461a.5.5 0 0 0 1 0v-2.461a1.626 1.626 0 0 1 1.322-1.596c3.737-.712 3.978-1.113 4.121-1.354a3.554 3.554 0 0 0 .297-.656l.005-.012.006-.011a.48.48 0 0 0 .012-.1.473.473 0 0 0 .013-.08l-.002-.008a.491.491 0 0 0-.031-.128.544.544 0 0 0-.018-.064c-.004-.009-.012-.015-.017-.024a.463.463 0 0 0-.452-.255 4.598 4.598 0 0 1-2.403-.603 3.917 3.917 0 0 0 1.016-3.164c.004-.201.008-.403.017-.605.025-.52.03-.969.036-1.366.019-1.456.026-2.058.88-3.01a3.309 3.309 0 0 1 2.583-.957 3.308 3.308 0 0 1 2.583.956c.854.953.861 1.555.88 3.01.005.398.011.847.036 1.367.009.202.013.404.017.605a3.916 3.916 0 0 0 1.017 3.166 4.37 4.37 0 0 1-2.048.59 5.787 5.787 0 0 1-.14-1.016 4.99 4.99 0 0 0 1.002-1.318.5.5 0 0 0-.893-.45 4.002 4.002 0 0 1-.94 1.199l-.01.012a.64.64 0 0 0-.16.344l-.004.016a6.5 6.5 0 0 0 .296 1.871.473.473 0 0 0 .018.05 3.451 3.451 0 0 0 .288.642c.143.24.384.641 4.122 1.353a1.626 1.626 0 0 1 1.32 1.596v2.461a.5.5 0 0 0 1 0v-2.461a2.628 2.628 0 0 0-2.133-2.578Z"></path></svg>