<svg xmlns="http://www.w3.org/2000/svg" viewBox="0 0 48 48" id="school"><path d="M5.259,10.439a3.285,3.285,0,0,1,6.454-.869,2.365,2.365,0,0,1,.386-.032,2.389,2.389,0,0,1,2.208,3.3h2.4a.5.5,0,0,1,0,1H13.354a.5.5,0,0,1-.333-.873,1.389,1.389,0,0,0-.922-2.428,1.34,1.34,0,0,0-.572.125.5.5,0,0,1-.708-.416A2.284,2.284,0,1,0,7.2,12.281a.5.5,0,1,1-.588.808A3.289,3.289,0,0,1,5.259,10.439Zm3.916,4.2a.5.5,0,0,0,0,1h3.374a.5.5,0,0,0,0-1Zm25.911,3.823a.5.5,0,0,0,0-1,1.005,1.005,0,1,1,.04-2.01.5.5,0,0,0,.493-.42,2.6,2.6,0,0,1,5.167.41,2.55,2.55,0,0,1-.263,1.134.5.5,0,0,0,.45.719h2.533a.5.5,0,0,0,0-1H41.684a3.6,3.6,0,0,0-6.967-1.809,2.006,2.006,0,0,0,.369,3.976ZM44.5,40.351a.5.5,0,0,1-.5.5H4a.5.5,0,0,1,0-1H5.259V27.682H5a.5.5,0,0,1-.5-.5v-2a.5.5,0,0,1,.5-.5h9.466v-1.5a.5.5,0,0,1,.5-.5h.948V20.834a.5.5,0,0,1,.5-.5h1.115A10.726,10.726,0,0,1,23.5,17.683V11.392a.5.5,0,0,1,.883-.321,2.668,2.668,0,0,0,2.416.675,4.729,4.729,0,0,1,2.549.322.5.5,0,0,1,.315.464V15.1a.5.5,0,0,1-.771.42A3.126,3.126,0,0,0,26.7,15.13a3.373,3.373,0,0,1-2.2-.2v2.756a10.726,10.726,0,0,1,5.971,2.651h1.115a.5.5,0,0,1,.5.5v1.845h.948a.5.5,0,0,1,.5.5v1.5H43a.5.5,0,0,1,.5.5v2a.5.5,0,0,1-.5.5h-.259V39.851H44A.5.5,0,0,1,44.5,40.351Zm-20-26.567.006,0a2.431,2.431,0,0,0,1.952.371,3.381,3.381,0,0,1,.824-.1,4.1,4.1,0,0,1,1.381.253V12.883a3.63,3.63,0,0,0-1.706-.149,3.9,3.9,0,0,1-2.457-.355Zm17.241,13.9H32.775V39.851h8.966Zm-13.62,5.583v-1H19.879v1Zm-7.414,1v5.586H23.5V34.265ZM24.5,39.851h2.793V34.265H24.5Zm3.793,0h3.482V25.679H16.225V39.851h3.482V34.265h-.328a.5.5,0,0,1-.5-.5v-2a.5.5,0,0,1,.5-.5h9.242a.5.5,0,0,1,.5.5v2a.5.5,0,0,1-.5.5h-.328ZM42.5,25.682H32.775v1h9.452l.014,0,.015,0H42.5Zm-25.586-3H31.086V21.334h-.811a.5.5,0,0,1-.348-.141A9.692,9.692,0,0,0,24,18.644a9.692,9.692,0,0,0-5.927,2.549.5.5,0,0,1-.348.141h-.811Zm-1.448,2H32.534v-1H15.466Zm-9.966,2h.244l.015,0,.014,0h9.452v-1H5.5Zm.759,13.169h8.966V27.682H6.259ZM25.544,27.182v2.79a.5.5,0,0,1-.5.5H22.956a.5.5,0,0,1-.5-.5v-2.79a.5.5,0,0,1,.5-.5h2.088A.5.5,0,0,1,25.544,27.182Zm-1,.5H23.456v1.79h1.088Zm5.3-.5v2.79a.5.5,0,0,1-.5.5H27.255a.5.5,0,0,1-.5-.5v-2.79a.5.5,0,0,1,.5-.5h2.089A.5.5,0,0,1,29.844,27.182Zm-1,.5H27.755v1.79h1.089Zm-7.6-.5v2.79a.5.5,0,0,1-.5.5H18.656a.5.5,0,0,1-.5-.5v-2.79a.5.5,0,0,1,.5-.5h2.089A.5.5,0,0,1,21.245,27.182Zm-1,.5H19.156v1.79h1.089Zm-6,2.07v2.79a.5.5,0,0,1-.5.5H11.655a.5.5,0,0,1-.5-.5v-2.79a.5.5,0,0,1,.5-.5h2.089A.5.5,0,0,1,14.244,29.752Zm-1,.5H12.155v1.79h1.089Zm-2.917-.5v2.79a.5.5,0,0,1-.5.5H7.739a.5.5,0,0,1-.5-.5v-2.79a.5.5,0,0,1,.5-.5H9.827A.5.5,0,0,1,10.327,29.752Zm-1,.5H8.239v1.79H9.327Zm4.917,4.736v2.79a.5.5,0,0,1-.5.5H11.655a.5.5,0,0,1-.5-.5v-2.79a.5.5,0,0,1,.5-.5h2.089A.5.5,0,0,1,14.244,34.988Zm-1,.5H12.155v1.79h1.089Zm-2.917-.5v2.79a.5.5,0,0,1-.5.5H7.739a.5.5,0,0,1-.5-.5v-2.79a.5.5,0,0,1,.5-.5H9.827A.5.5,0,0,1,10.327,34.988Zm-1,.5H8.239v1.79H9.327Zm24.429-2.946v-2.79a.5.5,0,0,1,.5-.5h2.089a.5.5,0,0,1,.5.5v2.79a.5.5,0,0,1-.5.5H34.256A.5.5,0,0,1,33.756,32.542Zm1-.5h1.089v-1.79H34.756Zm2.917.5v-2.79a.5.5,0,0,1,.5-.5h2.088a.5.5,0,0,1,.5.5v2.79a.5.5,0,0,1-.5.5H38.173A.5.5,0,0,1,37.673,32.542Zm1-.5h1.088v-1.79H38.673Zm-4.917,5.736v-2.79a.5.5,0,0,1,.5-.5h2.089a.5.5,0,0,1,.5.5v2.79a.5.5,0,0,1-.5.5H34.256A.5.5,0,0,1,33.756,37.778Zm1-.5h1.089v-1.79H34.756Zm2.917.5v-2.79a.5.5,0,0,1,.5-.5h2.088a.5.5,0,0,1,.5.5v2.79a.5.5,0,0,1-.5.5H38.173A.5.5,0,0,1,37.673,37.778Zm1-.5h1.088v-1.79H38.673ZM27.089,20.892H20.911a.5.5,0,0,0,0,1h6.178a.5.5,0,0,0,0-1Zm-3.617-.433h1.056a.5.5,0,0,0,0-1H23.472a.5.5,0,0,0,0,1Z"></path></svg>