<svg xmlns="http://www.w3.org/2000/svg" viewBox="0 0 64 64" id="teacher"><path fill="#000" d="M56.062 36.15h-10.9a1.5 1.5 0 0 1-1.5-1.544l.155-5.324a1.321 1.321 0 0 0-1.1-1.348L23.264 24.46a1.613 1.613 0 0 0 1.2 1.05c1.681.427 8.354 3.086 9.11 3.388a1.5 1.5 0 0 1 .943 1.393v4.359a1.5 1.5 0 0 1-1.5 1.5H7.938a1.5 1.5 0 0 1-1.5-1.5V6.457a1.5 1.5 0 0 1 1.5-1.5h48.124a1.5 1.5 0 0 1 1.5 1.5V34.65a1.5 1.5 0 0 1-1.5 1.5Zm-9.352-3h7.852V7.957H9.438V33.15h22.083v-1.841c-2.414-.954-6.694-2.612-7.792-2.891a4.85 4.85 0 0 1-3.638-4.37 2.391 2.391 0 0 1 .734-2.054 2.475 2.475 0 0 1 2.122-.638l20.307 3.625a4.352 4.352 0 0 1 3.566 4.389Z"></path><path fill="#222" d="M39.377 24.152A6.154 6.154 0 1 1 45.53 18a6.161 6.161 0 0 1-6.153 6.152zm0-9.307A3.154 3.154 0 1 0 42.53 18a3.157 3.157 0 0 0-3.153-3.155zM15.241 51.7a6.154 6.154 0 1 1 6.159-6.152 6.161 6.161 0 0 1-6.159 6.152zm0-9.307a3.154 3.154 0 1 0 3.159 3.155 3.157 3.157 0 0 0-3.159-3.148z"></path><path fill="#222" d="M21.762 59.043a1.5 1.5 0 0 1-1.5-1.5v-.332a3.5 3.5 0 0 0-3.5-3.5h-3.041a3.5 3.5 0 0 0-3.5 3.5v.332a1.5 1.5 0 0 1-3 0v-.332a6.508 6.508 0 0 1 6.5-6.5h3.041a6.508 6.508 0 0 1 6.5 6.5v.332a1.5 1.5 0 0 1-1.5 1.5zM32 51.7a6.154 6.154 0 1 1 6.153-6.154A6.161 6.161 0 0 1 32 51.7zm0-9.3a3.154 3.154 0 1 0 3.153 3.153A3.157 3.157 0 0 0 32 42.4z"></path><path fill="#222" d="M38.521 59.043a1.5 1.5 0 0 1-1.5-1.5v-.332a3.5 3.5 0 0 0-3.5-3.5h-3.042a3.5 3.5 0 0 0-3.5 3.5v.332a1.5 1.5 0 0 1-3 0v-.332a6.508 6.508 0 0 1 6.5-6.5h3.042a6.508 6.508 0 0 1 6.5 6.5v.332a1.5 1.5 0 0 1-1.5 1.5zM48.759 51.7a6.154 6.154 0 1 1 6.153-6.154 6.161 6.161 0 0 1-6.153 6.154zm0-9.307a3.154 3.154 0 1 0 3.153 3.153 3.158 3.158 0 0 0-3.153-3.146z"></path><path fill="#222" d="M55.279 59.043a1.5 1.5 0 0 1-1.5-1.5v-.332a3.5 3.5 0 0 0-3.5-3.5h-3.041a3.5 3.5 0 0 0-3.5 3.5v.332a1.5 1.5 0 1 1-3 0v-.332a6.508 6.508 0 0 1 6.5-6.5h3.041a6.508 6.508 0 0 1 6.5 6.5v.332a1.5 1.5 0 0 1-1.5 1.5Z"></path></svg>