<svg xmlns="http://www.w3.org/2000/svg" data-name="Layer 1" viewBox="0 0 128 128" id="teacher"><path d="M10 12h24a2 2 0 0 0 0-4H10a2 2 0 0 0 0 4zm0 8h62a2 2 0 0 0 0-4H10a2 2 0 0 0 0 4zm72.055 44-.005 2.019V68h5.027A7.958 7.958 0 0 1 87 67v-3z"></path><path d="M122 0H6a6.007 6.007 0 0 0-6 6v56a6.007 6.007 0 0 0 6 6h22v-4H6a2.003 2.003 0 0 1-2-2V6a2.003 2.003 0 0 1 2-2h116a2.003 2.003 0 0 1 2 2v56a2.003 2.003 0 0 1-2 2h-.17a8.034 8.034 0 0 1 3.177 3.184A5.998 5.998 0 0 0 128 62V6a6.007 6.007 0 0 0-6-6Z"></path><path d="M40 63v8h4v-8a2 2 0 0 0-4 0zM10 28h34.165a16.092 16.092 0 0 1 3.288-4H10a2 2 0 0 0 0 4zm61.835 0h9.362l2.076-2.541A9.984 9.984 0 0 1 84.848 24h-16.3a16.092 16.092 0 0 1 3.287 4zm24.955 3.95a5.894 5.894 0 0 0-2.121-4.518 5.994 5.994 0 0 0-8.378.652L73.291 44h-1.456a16.092 16.092 0 0 1-3.288 4h5.693a2 2 0 0 0 1.549-.734l13.56-16.604a1.967 1.967 0 0 1 2.745-.17 1.88 1.88 0 0 1 .696 1.458 1.742 1.742 0 0 1-.426 1.145 1.443 1.443 0 0 0-.071.086l-17.83 22.88a1.998 1.998 0 0 0-.423 1.229v.027c.02 2.204.02 5.306.01 8.683 0 1.632-.002 3.323-.004 5h4c.002-1.675.004-3.364.004-4.994.009-3.054.01-5.889-.005-8.035l17.372-22.292a5.737 5.737 0 0 0 1.373-3.729z"></path><path d="M36 56a8.01 8.01 0 0 1 8-8h3.453a16.092 16.092 0 0 1-3.288-4H44a12.013 12.013 0 0 0-12 12v15h4zm22-32a12 12 0 1 0 12 12 12.013 12.013 0 0 0-12-12zm0 20a8 8 0 1 1 8-8 8.01 8.01 0 0 1-8 8z"></path><path d="M124 75h-2v-4a4 4 0 0 0-4-4h-1v-4a4 4 0 0 0-4-4H95a4 4 0 0 0-4 4v4a4 4 0 0 0 4 4h1v4H4a4 4 0 0 0-4 4v4a4 4 0 0 0 4 4h2v39a2 2 0 0 0 4 0V87h108v39a2 2 0 0 0 4 0V87h2a4 4 0 0 0 4-4v-4a4 4 0 0 0-4-4Zm-6-4v4h-18v-4Zm-23-4v-4h18v4Zm29 16H4v-4h120Z"></path></svg>