<?xml version="1.0" encoding="UTF-8"?>
<svg xmlns="http://www.w3.org/2000/svg" viewBox="0 0 750 500">
  <defs>
    <style>
      .cls-1, .cls-2, .cls-3, .cls-4, .cls-5, .cls-6, .cls-7, .cls-8 {
        stroke-width: 0px;
      }

      .cls-9 {
        stroke-dasharray: 0 0 4 4;
      }

      .cls-9, .cls-10 {
        fill: none;
        stroke: #263238;
        stroke-miterlimit: 10;
      }

      .cls-2 {
        fill: #c7c7c7;
      }

      .cls-3 {
        fill: #fff;
      }

      .cls-4 {
        fill: #263238;
      }

      .cls-11 {
        opacity: .1;
      }

      .cls-5 {
        fill: #dbdbdb;
      }

      .cls-6 {
        fill: #ebebeb;
      }

      .cls-7 {
        fill: #455a64;
      }

      .cls-8 {
        fill: #e8bc43;
      }
    </style>
  </defs>
  <g id="Background_Complete" data-name="Background Complete">
    <g>
      <polygon class="cls-6" points="666.95 150.27 657.38 196.62 651.22 190.61 640.74 198.08 632.73 188.14 614.77 201.2 599.42 175.53 582.3 185.56 575.51 176.2 553.77 188.45 547.23 174.44 562.47 100.63 644.17 117.5 666.95 150.27"/>
      <polygon class="cls-5" points="644.17 117.5 666.95 150.27 638.61 144.42 644.17 117.5"/>
      <polygon class="cls-6" points="655.34 205.88 641.31 273.88 531.26 251.16 545.19 183.71 551.73 197.71 573.48 185.46 580.26 194.82 597.39 184.8 612.73 210.47 630.7 197.41 638.7 207.35 649.19 199.88 655.34 205.88"/>
    </g>
    <g>
      <polygon class="cls-6" points="497.83 197.91 385.68 204.85 376.77 60.89 460.05 55.73 490.62 81.38 497.83 197.91"/>
      <polygon class="cls-5" points="460.05 55.73 490.62 81.38 461.74 83.17 460.05 55.73"/>
      <path class="cls-5" d="m428.96,152.6l-.43-3.25c-1.13-6.73.71-14.26,6.56-22.13,5.27-6.96,8.13-12.03,7.82-17.68-.36-6.4-4.61-10.44-12.52-10.12-4.52.25-9.45,2.04-12.45,4.6l-3.45-7.73c3.97-3.24,11.01-5.65,17.66-6.02,14.42-.81,21.44,7.73,21.98,17.26.48,8.53-3.94,14.94-9.56,22.43-5.15,6.83-6.85,12.46-6.12,18.84l.31,3.25-9.78.55Zm-1.78,17.71c-.26-4.64,2.69-8.08,7.08-8.32,4.39-.25,7.58,2.85,7.84,7.49.25,4.39-2.45,7.94-7.09,8.2-4.39.25-7.59-2.97-7.84-7.36Z"/>
    </g>
    <g>
      <path class="cls-6" d="m148.48,128.11l-11.29-5.12-1.56,3.46c-.46,1.02-1.46,1.66-2.57,1.71-.62.03-1.23.09-1.84.18-1.1.17-2.2-.28-2.85-1.18l-2.21-3.08-10.08,7.22,2.21,3.08c.65.9.71,2.09.2,3.08-.29.55-.54,1.11-.76,1.69-.4,1.04-1.34,1.78-2.45,1.88l-3.78.37,1.22,12.33,3.79-.38c1.11-.11,2.16.44,2.77,1.38.16.26.33.51.51.76.18.25.36.49.55.73.69.87.88,2.04.42,3.05l-1.58,3.48,11.29,5.12,1.57-3.46c.46-1.02,1.46-1.66,2.57-1.71.61-.03,1.23-.09,1.84-.18,1.1-.17,2.2.28,2.85,1.18l2.21,3.08,10.08-7.22-2.21-3.08c-.65-.9-.71-2.09-.2-3.08.28-.55.54-1.11.76-1.68.4-1.04,1.34-1.78,2.45-1.89l3.78-.37-1.22-12.33-3.79.37c-1.11.11-2.15-.44-2.76-1.38-.16-.26-.34-.51-.52-.76-.18-.25-.36-.49-.55-.73-.7-.87-.88-2.05-.42-3.06l1.57-3.46Zm-6.4,11.41c3.26,4.56,2.22,10.89-2.34,14.16-4.56,3.26-10.9,2.22-14.17-2.33-3.26-4.56-2.22-10.91,2.34-14.17,4.56-3.26,10.9-2.21,14.16,2.35Z"/>
      <path class="cls-6" d="m658.38,291.71l-7.52,4.34,1.33,2.3c.39.68.35,1.51-.07,2.16-.24.36-.45.74-.65,1.12-.35.69-1.06,1.14-1.83,1.14h-2.66v8.68h2.66c.78,0,1.48.45,1.83,1.14.2.39.41.76.65,1.12.43.65.46,1.49.07,2.16l-1.33,2.3,7.52,4.34,1.33-2.31c.39-.68,1.13-1.05,1.92-1.01.21.01.43.02.64.02s.43,0,.64-.02c.78-.04,1.52.33,1.91,1l1.34,2.32,7.52-4.34-1.33-2.31c-.39-.68-.35-1.51.08-2.16.24-.36.45-.73.65-1.12.35-.69,1.05-1.14,1.83-1.14h2.66v-8.68h-2.66c-.78,0-1.48-.45-1.83-1.14-.2-.39-.41-.76-.65-1.12-.43-.65-.47-1.49-.08-2.16l1.33-2.31-7.52-4.34-1.33,2.31c-.39.68-1.13,1.05-1.91,1.01-.21-.01-.43-.02-.64-.02s-.43,0-.64.02c-.78.04-1.53-.33-1.92-1.01l-1.33-2.31Zm3.89,8.3c3.93,0,7.11,3.18,7.11,7.11s-3.18,7.11-7.11,7.11-7.11-3.19-7.11-7.11,3.19-7.11,7.11-7.11Z"/>
      <path class="cls-6" d="m171.3,91.16l-6.9,5.27,1.62,2.11c.48.62.55,1.45.21,2.16-.19.39-.35.79-.5,1.2-.26.73-.9,1.27-1.67,1.37l-2.64.34,1.12,8.61,2.64-.34c.77-.1,1.53.25,1.97.9.25.36.51.7.79,1.03.51.59.65,1.41.35,2.14l-1.02,2.45,8.02,3.33,1.02-2.46c.3-.72.99-1.19,1.77-1.25.21-.02.42-.04.64-.07.21-.03.42-.06.63-.1.77-.14,1.55.13,2.02.75l1.63,2.13,6.9-5.27-1.62-2.12c-.47-.62-.54-1.45-.2-2.16.19-.39.35-.79.5-1.19.26-.73.9-1.27,1.67-1.37l2.64-.34-1.12-8.61-2.64.34c-.77.1-1.53-.25-1.97-.89-.24-.36-.51-.7-.79-1.03-.51-.59-.65-1.41-.35-2.14l1.02-2.46-8.02-3.33-1.02,2.46c-.3.72-.99,1.18-1.76,1.25-.21.02-.43.04-.64.07-.21.03-.42.06-.63.1-.77.14-1.56-.13-2.03-.75l-1.62-2.11Zm4.92,7.73c3.89-.51,7.46,2.24,7.97,6.13.51,3.89-2.24,7.47-6.13,7.97-3.89.51-7.47-2.24-7.97-6.14-.51-3.89,2.24-7.46,6.14-7.97Z"/>
    </g>
    <g>
      <g>
        <path class="cls-6" d="m119.82,316.78c.39-9.68.24-19.37-.4-29.03-1.31-19.93-4.59-39.71-9.1-59.15-2.54-10.95-5.66-21.71-8.91-32.46-.1-.32-.62-.23-.53.11,10.06,37.9,18.32,77,17.75,116.4-.16,11.02-1.44,21.85-2.48,32.81-.03.29.45.41.52.11,2.08-9.38,2.75-19.2,3.14-28.77Z"/>
        <path class="cls-6" d="m100.88,196.24s-15.25,38.7-11.83,47.79c3.41,9.1,10.45,11.04,10.45,11.04,0,0-9.33,13.32-2.81,25.81,6.52,12.49,21,11.9,21.96,26.06,0,0,.81-59.22-17.77-110.7Z"/>
        <path class="cls-3" d="m117,282.49c.02-.06.01-.13-.02-.2-2.14-26.31-6.81-52.54-14.79-77.85-.02-.07-.15-.05-.13.03,3.02,11.32,5.71,22.7,8.01,34.14-1.98-2.04-4.57-3.21-7.28-4.06-.05-.02-.08.06-.03.08,2.82,1.22,5.52,2.63,7.51,5.02.45,2.24.88,4.49,1.3,6.73-3.41-3.81-8.13-5.7-12.86-7.49-.07-.03-.1.08-.04.1,4.92,2,9.83,4.59,13.17,8.83,1.16,6.42,2.18,12.87,3.06,19.33-2.49-2.6-5.56-4.35-9.09-5.21-.11-.03-.17.13-.06.16,3.62,1.04,6.74,3.07,9.22,5.91.02.02.04.03.06.04.31,2.27.59,4.55.86,6.83-1.92-1.64-4.04-2.88-6.37-3.84-.06-.03-.1.07-.03.1,2.37,1.01,4.5,2.46,6.38,4.22.03.02.05.02.08.03.25,2.17.51,4.33.73,6.51-3.5-4.21-7.82-7.26-12.93-9.23-.1-.04-.15.11-.06.16,4.97,2.16,9.35,5.59,12.74,9.81.09.12.21.13.32.1.33,3.33.62,6.67.87,10.01,0,.05.08.05.08,0-.19-3.42-.43-6.84-.71-10.26Z"/>
        <path class="cls-3" d="m104.75,230.71c-2.64-1.82-6-2.59-9.16-2.86-.08,0-.08.11,0,.12,3.28.49,6.04,1.68,9.06,2.96.13.06.22-.14.11-.22Z"/>
        <path class="cls-3" d="m106.6,271.68c-2.09-1.26-4.48-1.97-6.88-2.35-.08-.01-.09.12,0,.13,2.43.44,4.59,1.31,6.8,2.39.09.05.17-.11.08-.16Z"/>
      </g>
      <g>
        <path class="cls-6" d="m159.9,244.67c-6.36,4.47-12.46,9.63-17.65,15.43-5.53,6.18-9.56,13.2-12.38,20.99-5.77,15.96-8.93,33.24-9.22,50.2-.16,9.51.68,18.94,2.72,28.23.07.34.58.24.53-.1-2.49-16.35-2.4-33.03.28-49.34,2.62-16.01,6.73-33.43,16.91-46.44,5.54-7.08,12.45-12.66,19.28-18.42.36-.3-.1-.8-.47-.54Z"/>
        <path class="cls-6" d="m122.9,319.75s5.24-8.82,12.86-16.44c7.63-7.62,14.05-13.04,15.04-18.09.99-5.04-7.64-8.76-7.64-8.76,0,0,10.55,1.89,13.44-2.53,2.89-4.43,4.28-30.08,4.28-30.08,0,0-19.2,13.71-28.15,32.93-8.95,19.22-9.84,42.98-9.84,42.98Z"/>
        <path class="cls-3" d="m154.25,250.42c-8.08,7.94-16.21,16.39-20.97,26.82-1.63,3.57-3.02,7.28-4.24,11.06,0,0,0,.01,0,.02-.25.76-.49,1.51-.73,2.28-.02.04-.04.08-.04.12-2.35,7.79-4.01,15.84-5.45,23.7,0,.05.07.08.08.03.83-4,1.74-8.04,2.76-12.07.04,0,.07,0,.11-.02,1.63-.69,3.28-1.12,5.04-1.28.11-.01.11-.21-.01-.2-1.7.08-3.37.38-4.98.91.93-3.63,1.94-7.26,3.08-10.83,3.71-.91,7.58-1.4,11.39-1.49.04,0,.05-.06,0-.06-3.84-.18-7.45.15-11.2.95.2-.61.4-1.22.61-1.83,2.5-.57,5.02-1.05,7.58-1.28.05,0,.04-.08,0-.08-2.51.07-4.98.33-7.42.9,1.04-3.09,2.17-6.14,3.43-9.11,1.04-2.46,2.27-4.79,3.63-7.04,2.05-.46,4.04-.91,6.15-1.1.06,0,.05-.1,0-.1-1.91-.12-3.9.02-5.75.57,1.01-1.63,2.07-3.23,3.21-4.78,0,0,0,0,0,0,4.31-.95,8.67-1.84,13.07-1.01.08.01.1-.11.03-.13-4.19-1.1-8.35-.47-12.53.36.46-.61.92-1.2,1.39-1.8,2.64-.82,5.27-1.21,8.05-1.26.06,0,.07-.08,0-.09-2.53-.24-5.06,0-7.5.67,3.56-4.42,7.49-8.58,11.38-12.69.18-.19.04-.3-.15-.11Z"/>
        <path class="cls-3" d="m154.03,267.91c-1.26-.13-2.55-.28-3.82-.13-.15.02-.14.27.01.27,1.26.04,2.53-.06,3.79.01.1,0,.11-.14.01-.15Z"/>
        <path class="cls-3" d="m140.21,292.8c-2.02-.02-4.03.52-5.92,1.19-.05.02-.02.1.03.08,1.95-.47,3.93-.65,5.91-.98.16-.03.15-.29-.02-.29Z"/>
        <path class="cls-3" d="m136.07,284.2c-.82-.04-1.7.1-2.51.23-.08.01-.08.15,0,.15.82.01,1.71.04,2.52-.12.14-.03.14-.25-.01-.26Z"/>
      </g>
      <g>
        <path class="cls-6" d="m66.61,271.89c6.18,2.15,12.31,4.91,17.85,8.4,5.9,3.73,10.79,8.47,14.87,14.12,8.36,11.58,14.91,24.84,19.06,38.49,2.33,7.66,3.82,15.48,4.33,23.47.02.29-.41.33-.45.04-1.77-13.8-5.7-27.28-11.63-39.87-5.82-12.35-13.18-25.49-24.42-33.67-6.12-4.45-13-7.37-19.86-10.45-.36-.16-.1-.67.26-.55Z"/>
        <path class="cls-6" d="m113.91,324.1s-6.28-5.93-14.21-10.33c-7.93-4.41-14.39-7.31-16.35-11.16-1.97-3.85,4.16-8.85,4.16-8.85,0,0-8.1,3.97-11.46,1.06-3.36-2.92-10.42-23.36-10.42-23.36,0,0,18.71,6.66,30.39,20.14,11.68,13.48,17.9,32.51,17.9,32.51Z"/>
        <path class="cls-3" d="m112.93,319.89c-9.36-17.56-21.84-33.45-38.95-43.94,0,0-.02,0,0,.01,4.5,2.87,8.65,6.18,12.52,9.8-3.46-.1-6.99.46-10.06,2.12-.07.04-.02.13.05.11,3.42-1.16,6.71-1.92,10.35-1.75.05,0,.08-.02.12-.04.61.58,1.21,1.16,1.8,1.75-1.8.08-3.62.33-5.37.71-.05.01-.03.08.01.07,1.9-.37,3.75-.49,5.68-.47,3.14,3.15,6.06,6.52,8.82,10.02-1.25-.18-2.56-.08-3.76.27-.09.03-.07.15.03.14,1.36-.17,2.66-.15,4.01-.06.51.65,1.03,1.3,1.53,1.96-3.85-.23-7.62.14-11.35,1.1-.06.01-.04.1.02.09,3.86-.76,7.74-1,11.66-.76.48.63.93,1.28,1.4,1.92-2.3-.07-4.52.22-6.76.77-.09.02-.06.15.03.14,2.3-.52,4.64-.66,7-.55,2.01,2.77,3.94,5.61,5.79,8.48-.98-.2-2.01-.09-2.97.18-.05.01-.04.09.02.08,1.1-.13,2.13.01,3.21.15,1.67,2.59,3.28,5.21,4.82,7.85.13.22.49.06.37-.18Z"/>
        <path class="cls-3" d="m98.38,305.32c-1.83-.16-3.69.13-5.44.66-.05.02-.04.09.02.08,1.8-.33,3.58-.46,5.4-.55.12,0,.14-.18.01-.19Z"/>
        <path class="cls-3" d="m82.06,283.92c-.83-.09-1.69.01-2.51.15-.1.02-.07.16.03.15.82-.09,1.64-.06,2.46-.08.13,0,.16-.2.02-.21Z"/>
      </g>
      <g>
        <g>
          <polygon class="cls-5" points="138.04 382.18 95.81 382.18 101.83 338.07 103.37 326.76 130.48 326.76 132.02 338.07 138.04 382.18"/>
          <polygon class="cls-2" points="132.02 338.07 101.83 338.07 103.37 326.76 130.48 326.76 132.02 338.07"/>
        </g>
        <rect class="cls-5" x="99.49" y="322.84" width="34.86" height="9.58"/>
      </g>
    </g>
  </g>
  <g id="Floor">
    <polygon class="cls-4" points="68.96 382.18 144.97 381.94 220.98 381.85 373 381.68 525.02 381.85 601.03 381.94 677.04 382.18 601.03 382.43 525.02 382.51 373 382.68 220.98 382.51 144.97 382.42 68.96 382.18"/>
  </g>
  <g id="Shadow">
    <ellipse class="cls-6" cx="375" cy="425.29" rx="286.74" ry="31.42"/>
  </g>
  <g id="Folder">
    <g>
      <g>
        <g>
          <polygon class="cls-8" points="542.13 432.05 237.46 432.05 281.51 182.2 586.19 182.2 542.13 432.05"/>
          <polygon class="cls-8" points="385.79 156.32 286.07 156.32 281.51 182.2 388.22 182.2 385.79 156.32"/>
        </g>
        <g class="cls-11">
          <polygon class="cls-1" points="542.13 432.05 237.46 432.05 281.51 182.2 586.19 182.2 542.13 432.05"/>
          <polygon class="cls-1" points="385.79 156.32 286.07 156.32 281.51 182.2 388.22 182.2 385.79 156.32"/>
        </g>
      </g>
      <g>
        <path class="cls-4" d="m275.31,166.88c-.39-1.45-.48-2.9-.5-4.35.01-1.45.1-2.9.5-4.35.4,1.45.49,2.9.5,4.35-.02,1.45-.11,2.9-.5,4.35Z"/>
        <path class="cls-4" d="m266.45,169.44c-1.07-1.06-1.87-2.27-2.61-3.52-.71-1.26-1.36-2.56-1.74-4.02,1.07,1.06,1.87,2.27,2.61,3.52.71,1.26,1.36,2.56,1.74,4.02Z"/>
        <path class="cls-4" d="m260.06,176.09c-1.45-.38-2.75-1.03-4.02-1.74-1.25-.74-2.46-1.54-3.52-2.61,1.45.38,2.75,1.03,4.02,1.74,1.25.74,2.46,1.54,3.52,2.61Z"/>
        <path class="cls-4" d="m257.85,185.05c-1.45.39-2.9.48-4.35.5-1.45-.01-2.9-.1-4.35-.5,1.45-.4,2.9-.49,4.35-.5,1.45.02,2.9.11,4.35.5Z"/>
        <path class="cls-4" d="m260.41,193.91c-1.06,1.07-2.27,1.87-3.52,2.61-1.26.71-2.56,1.36-4.02,1.74,1.06-1.07,2.27-1.87,3.52-2.61,1.26-.71,2.56-1.36,4.02-1.74Z"/>
        <path class="cls-4" d="m267.06,200.3c-.38,1.45-1.03,2.75-1.74,4.02-.74,1.25-1.54,2.46-2.61,3.52.38-1.45,1.03-2.75,1.74-4.02.74-1.25,1.54-2.46,2.61-3.52Z"/>
        <path class="cls-4" d="m276.02,202.51c.39,1.45.48,2.9.5,4.35-.01,1.45-.1,2.9-.5,4.35-.4-1.45-.49-2.9-.5-4.35.02-1.45.11-2.9.5-4.35Z"/>
        <path class="cls-4" d="m284.88,199.95c1.07,1.06,1.87,2.27,2.61,3.52.71,1.26,1.36,2.56,1.74,4.02-1.07-1.06-1.87-2.27-2.61-3.52-.71-1.26-1.36-2.56-1.74-4.02Z"/>
        <path class="cls-4" d="m291.27,193.3c1.45.38,2.75,1.03,4.02,1.74,1.25.74,2.46,1.54,3.52,2.61-1.45-.38-2.75-1.03-4.02-1.74-1.25-.74-2.46-1.54-3.52-2.61Z"/>
        <path class="cls-4" d="m293.48,184.34c1.45-.39,2.9-.48,4.35-.5,1.45.01,2.9.1,4.35.5-1.45.4-2.9.49-4.35.5-1.45-.02-2.9-.11-4.35-.5Z"/>
        <path class="cls-4" d="m290.92,175.48c1.06-1.07,2.27-1.87,3.52-2.61,1.26-.71,2.56-1.36,4.02-1.74-1.06,1.07-2.27,1.87-3.52,2.61-1.26.71-2.56,1.36-4.02,1.74Z"/>
        <path class="cls-4" d="m284.27,169.09c.38-1.45,1.03-2.75,1.74-4.02.74-1.25,1.54-2.46,2.61-3.52-.38,1.45-1.03,2.75-1.74,4.02-.74,1.25-1.54,2.46-2.61,3.52Z"/>
      </g>
      <polygon class="cls-8" points="541.69 432.05 236.35 432.05 193 191.27 498.34 191.27 541.69 432.05"/>
      <g>
        <circle class="cls-4" cx="298.81" cy="325.77" r="12.69"/>
        <circle class="cls-4" cx="399.13" cy="325.77" r="12.69"/>
        <path class="cls-4" d="m367.2,340.49l-.7-1.33c-.06-.12-6.62-12.24-19.81-12.24-12.03,0-14.96,11.41-15.08,11.9l-.36,1.45-2.91-.7.35-1.46c.03-.14,3.57-14.19,18-14.19s22.17,13.28,22.47,13.85l.7,1.33-2.66,1.39Z"/>
      </g>
    </g>
  </g>
  <g id="Fly">
    <g>
      <g>
        <path class="cls-10" d="m521.42,324.31c.65-.14,1.3-.29,1.95-.46"/>
        <path class="cls-9" d="m527.21,322.72c15.3-5.17,28.11-17.2,29.31-31.26,2.66-31-35.1-48.12-31.2-83.95,3.72-34.17,39.56-36.61,53.93-31.89,15.87,5.22,10.43,20.47-3.94,18.5-24.91-3.41-40.57-30.49-28.74-61.21,8.84-22.95,30.87-31.61,39.82-34.25"/>
        <path class="cls-10" d="m588.33,98.14c1.24-.32,1.94-.45,1.94-.45"/>
      </g>
      <g>
        <path class="cls-4" d="m606.14,92.16c-2.55-7.9-19.63-5.06-16.3,5.26,3.33,10.33,18.85,2.64,16.3-5.26Z"/>
        <g>
          <path class="cls-6" d="m580.55,88.98c.13-3.47,4.95-6.13,11.77-4.9,6.82,1.23,13.24,5.82,13.24,5.82,0,0-6.74,4.12-13.63,4.85-6.89.73-11.5-2.29-11.37-5.77Z"/>
          <g>
            <path class="cls-4" d="m605.55,89.9c-3.54.02-7.07-.09-10.61-.2-3.53-.15-7.07-.29-10.59-.58,3.54-.03,7.07.09,10.61.2,3.53.15,7.07.29,10.59.58Z"/>
            <path class="cls-4" d="m587.4,85.91c1.02.46,1.97,1.04,2.92,1.61.93.61,1.87,1.21,2.73,1.93-1.02-.46-1.97-1.04-2.92-1.61-.93-.61-1.87-1.21-2.73-1.93Z"/>
            <path class="cls-4" d="m596.67,89.57c-.9.76-1.87,1.4-2.84,2.05-.99.61-1.98,1.23-3.04,1.73.9-.76,1.87-1.4,2.84-2.05.99-.61,1.98-1.23,3.04-1.73Z"/>
            <path class="cls-4" d="m597.69,87.62c.53.23.97.57,1.41.9.42.36.84.72,1.18,1.19-.53-.23-.97-.57-1.41-.9-.42-.36-.84-.72-1.18-1.19Z"/>
          </g>
        </g>
        <g>
          <path class="cls-6" d="m587.04,109.55c2.13,2.74,7.6,2.08,12.41-2.9,4.81-4.98,7.33-12.46,7.33-12.46,0,0-7.88.6-13.89,4.04-6.01,3.44-7.99,8.58-5.85,11.33Z"/>
          <g>
            <path class="cls-4" d="m606.79,94.18c-2.89,2.05-5.68,4.21-8.49,6.37-2.78,2.19-5.56,4.37-8.26,6.66,2.89-2.05,5.68-4.21,8.49-6.37,2.78-2.19,5.56-4.37,8.26-6.66Z"/>
            <path class="cls-4" d="m594.4,108.03c.56-.97.99-2,1.43-3.02.4-1.04.81-2.07,1.08-3.16-.56.97-.99,2-1.43,3.02-.4,1.04-.81,2.07-1.08,3.16Z"/>
            <path class="cls-4" d="m599.77,99.64c-1.17-.09-2.34-.04-3.5,0-1.16.08-2.33.15-3.48.37,1.17.09,2.34.04,3.5,0,1.16-.08,2.33-.16,3.48-.37Z"/>
            <path class="cls-4" d="m601.75,100.63c.3-.49.45-1.02.62-1.55.13-.54.26-1.08.26-1.65-.3.49-.45,1.02-.62,1.55-.13.54-.26,1.08-.26,1.65Z"/>
          </g>
        </g>
        <path class="cls-7" d="m606.14,92.16c-1.57.51-3.26-.36-3.77-1.93-.51-1.57.36-3.26,1.93-3.77s3.26.36,3.77,1.93c.51,1.57-.36,3.26-1.93,3.77Z"/>
        <path class="cls-7" d="m607.98,97.87c-1.57.51-3.26-.36-3.77-1.93-.51-1.57.36-3.26,1.93-3.77s3.26.36,3.77,1.93c.51,1.57-.36,3.26-1.93,3.77Z"/>
      </g>
    </g>
  </g>
  <g id="Speech_Bubble" data-name="Speech Bubble">
    <g>
      <g>
        <path class="cls-3" d="m232.3,83.39c13.59,2.15,22.88,14.92,20.73,28.51-.87,5.49-3.47,10.28-7.18,13.9l1.17,12.55-10.44-6.8c-3.76,1.32-7.88,1.74-12.07,1.08-13.59-2.15-22.88-14.92-20.73-28.51,2.15-13.59,14.92-22.88,28.51-20.73Z"/>
        <path class="cls-4" d="m232.3,83.39c4.52.76,8.88,2.66,12.35,5.69.91.7,1.66,1.59,2.48,2.39.71.9,1.49,1.76,2.09,2.74,1.31,1.89,2.3,4,3.03,6.18.78,2.18,1.09,4.49,1.24,6.79,0,1.15.05,2.31-.12,3.46-.09,1.15-.27,2.3-.54,3.43-1.06,4.51-3.42,8.71-6.73,11.99l.11-.29,1.25,12.54.09.91-.77-.5-10.46-6.76.42.05c-7.26,2.64-15.69,1.52-22.1-2.7-3.21-2.1-5.93-4.94-7.89-8.23-1.97-3.29-3.11-7.04-3.43-10.83-.3-3.8.25-7.66,1.63-11.2,1.4-3.53,3.61-6.72,6.39-9.29,5.51-5.22,13.5-7.57,20.95-6.37Zm0,0c-7.46-1.15-15.4,1.25-20.84,6.48-2.72,2.59-4.85,5.79-6.17,9.3-1.31,3.51-1.77,7.32-1.41,11.03.37,3.71,1.55,7.34,3.52,10.49,1.97,3.15,4.63,5.86,7.73,7.88,3.1,2.05,6.71,3.22,10.37,3.71,3.68.43,7.44.02,10.94-1.18l.23-.08.2.13,10.41,6.83-.68.41-1.09-12.56-.02-.17.12-.12c3.27-3.13,5.64-7.19,6.77-11.59.28-1.1.48-2.22.59-3.35.18-1.13.16-2.27.17-3.41-.11-2.27-.37-4.56-1.11-6.72-.69-2.17-1.62-4.29-2.92-6.17-.58-.99-1.36-1.84-2.06-2.74-.81-.81-1.55-1.69-2.45-2.4-3.44-3.05-7.78-4.97-12.29-5.76Z"/>
      </g>
      <g>
        <path class="cls-8" d="m217.45,121.21c0-1.49,1.03-2.56,2.44-2.56,1.49,0,2.44,1.07,2.44,2.56s-.95,2.56-2.44,2.56-2.44-1.12-2.44-2.56Zm1.03-5.91l-.58-19.84h3.97l-.58,19.84h-2.81Z"/>
        <path class="cls-8" d="m226.96,121.21c0-1.49,1.03-2.56,2.44-2.56,1.49,0,2.44,1.07,2.44,2.56s-.95,2.56-2.44,2.56-2.44-1.12-2.44-2.56Zm1.03-5.91l-.58-19.84h3.97l-.58,19.84h-2.81Z"/>
        <path class="cls-8" d="m236.46,121.21c0-1.49,1.03-2.56,2.44-2.56,1.49,0,2.44,1.07,2.44,2.56s-.95,2.56-2.44,2.56-2.44-1.12-2.44-2.56Zm1.03-5.91l-.58-19.84h3.97l-.58,19.84h-2.81Z"/>
      </g>
    </g>
  </g>
</svg>