<svg width="136" height="23" viewBox="0 0 136 23" fill="none" xmlns="http://www.w3.org/2000/svg">
<g clip-path="url(#clip0_9_2)">
<path d="M14.56 16.62C15.57 14.81 16.3 12.48 15.5 10.1C15.31 9.54003 15.05 9.04003 14.74 8.59003C14.41 8.84003 14.12 9.12003 13.87 9.44003C13.87 9.44003 13.87 9.45003 13.88 9.46003C13.88 9.46003 13.88 9.47003 13.89 9.48003C13.9 9.50003 13.91 9.51003 13.92 9.52003C14 9.65003 14.08 9.78003 14.14 9.92003C14.2 10.04 14.25 10.16 14.3 10.28C14.32 10.34 14.35 10.41 14.37 10.47C14.94 12.18 14.53 13.91 13.84 15.38C14.06 15.82 14.31 16.23 14.57 16.61L14.56 16.62Z" fill="#fff"/>
<path d="M22.1301 20.99H5.18005V22.19H22.1301V20.99Z" fill="#fff"/>
<path d="M7.8 11.68V11.08H6.9L4.74 5.97004C5.26 5.99004 5.86 6.02004 6.48 6.09004C6.6 6.11004 6.73 6.12004 6.85 6.13004C6.98 6.14004 7.1 6.16004 7.23 6.18004C7.36 6.20004 7.5 6.22004 7.63 6.24004C7.76 6.26004 7.89 6.28004 8.02 6.31004C8.29 6.36004 8.55 6.41004 8.82 6.48004C8.95 6.51004 9.08 6.54004 9.22 6.58004C9.35 6.62004 9.48 6.65004 9.61 6.69004C10.47 6.94004 11.3 7.28004 12.02 7.73004C12.04 7.74004 12.06 7.76004 12.09 7.77004C12.36 7.46004 12.65 7.17004 12.97 6.91004C12.58 6.64004 12.16 6.41004 11.72 6.20004C11.58 6.13004 11.45 6.07004 11.31 6.02004C10.87 5.83004 10.41 5.67004 9.95 5.54004C9.88 5.52004 9.8 5.49004 9.72 5.47004C9.61 5.44004 9.5 5.41004 9.38 5.38004C9.24 5.34004 9.09 5.31004 8.95 5.28004C8.81 5.25004 8.66 5.22004 8.52 5.19004C8.43 5.17004 8.35 5.15004 8.26 5.14004C8.16 5.12004 8.06 5.10004 7.97 5.09004C7.87 5.07004 7.76 5.05004 7.66 5.04004C7.52 5.02004 7.38 5.00004 7.24 4.98004C7.1 4.96004 6.96 4.94004 6.83 4.93004C6.7 4.92004 6.56 4.90004 6.43 4.89004C6.3 4.88004 6.17 4.87004 6.04 4.86004C5.91 4.85004 5.78 4.84004 5.65 4.83004C5.53 4.83004 5.4 4.82004 5.28 4.81004C5.16 4.81004 5.04 4.80004 4.93 4.80004C4.81 4.80004 4.7 4.80004 4.59 4.79004C4.48 4.79004 4.37 4.79004 4.27 4.79004C4.17 4.79004 4.07 4.79004 3.97 4.79004C3.5 4.79004 3.11 4.80004 2.85 4.81004C2.79 4.81004 2.74 4.81004 2.69 4.81004C2.57 4.81004 2.5 4.82004 2.47 4.82004L2.56 6.02004C2.56 6.02004 2.57 6.02004 2.59 6.02004C2.63 6.02004 2.69 6.02004 2.78 6.01004C2.89 6.01004 3.04 6.00004 3.23 5.99004L1.04 11.08H0V11.68C0 13.83 1.75 15.58 3.9 15.58C6.05 15.58 7.8 13.83 7.8 11.68ZM3.97 7.23004L5.6 11.08H2.35L3.98 7.23004H3.97ZM3.9 14.38C2.62 14.38 1.54 13.48 1.27 12.28H6.53C6.26 13.48 5.18 14.38 3.9 14.38Z" fill="#fff"/>
<path d="M26.0901 11.08L23.9301 5.97001C24.0501 5.97001 24.1501 5.97001 24.2301 5.98001C24.2601 5.98001 24.2901 5.98001 24.3201 5.98001C24.3401 5.98001 24.3701 5.98001 24.3901 5.98001C24.4301 5.98001 24.4501 5.98001 24.4501 5.98001L24.5401 4.78001C24.5401 4.78001 24.4601 4.78001 24.3801 4.77001C24.2301 4.77001 23.9901 4.75001 23.6701 4.74001C23.6201 4.74001 23.5701 4.74001 23.5201 4.74001C23.2101 4.74001 22.8401 4.74001 22.4201 4.74001C22.3601 4.74001 22.3101 4.74001 22.2501 4.74001C22.1401 4.74001 22.0201 4.74001 21.9001 4.75001C21.7801 4.75001 21.6601 4.76001 21.5301 4.77001C21.2901 4.78001 21.0401 4.80001 20.7801 4.83001C20.6401 4.83001 20.5001 4.85001 20.3501 4.87001C20.2201 4.88001 20.1001 4.90001 19.9601 4.91001C19.8001 4.93001 19.6401 4.95001 19.4701 4.98001C19.3601 4.99001 19.2501 5.01001 19.1301 5.03001C19.1001 5.03001 19.0801 5.03001 19.0501 5.04001C18.9201 5.06001 18.7901 5.08001 18.6501 5.11001C18.5301 5.13001 18.4001 5.16001 18.2801 5.18001C18.1801 5.20001 18.0901 5.22001 18.0001 5.24001C17.8601 5.27001 17.7101 5.31001 17.5701 5.34001C17.4501 5.37001 17.3301 5.40001 17.2101 5.44001C16.6201 5.61001 16.0401 5.81001 15.4801 6.06001L15.4301 6.02001L12.4101 4.08001C12.0901 3.85001 11.8701 3.51001 11.7901 3.12001C11.6001 2.25001 12.1501 1.39001 13.0201 1.20001C13.8901 1.01001 14.7501 1.56001 14.9401 2.43001L16.1101 2.17001C15.7801 0.650009 14.2801 -0.309991 12.7601 0.0200092C11.2401 0.350009 10.2801 1.85001 10.6101 3.37001C10.7601 4.05001 11.1501 4.65001 11.7201 5.06001L14.2601 6.69001C14.1701 6.75001 14.0701 6.81001 13.9801 6.87001C13.8901 6.93001 13.7901 7.00001 13.7001 7.06001C13.6301 7.11001 13.5601 7.17001 13.4801 7.23001C13.3201 7.36001 13.1701 7.49001 13.0301 7.63001C12.9801 7.68001 12.9301 7.73001 12.8701 7.79001C12.7801 7.89001 12.6901 7.98001 12.6001 8.08001C12.6001 8.08001 12.5801 8.10001 12.5701 8.11001C12.4801 8.22001 12.3801 8.33001 12.3001 8.45001C12.2801 8.48001 12.2501 8.52001 12.2301 8.55001C12.1901 8.61001 12.1401 8.68001 12.1001 8.74001C12.0001 8.89001 11.9101 9.04001 11.8301 9.20001C11.7601 9.33001 11.7001 9.47001 11.6401 9.61001C11.5801 9.75001 11.5301 9.90001 11.4801 10.05C10.6801 12.43 11.4101 14.76 12.4201 16.57C12.5301 16.77 12.6401 16.96 12.7601 17.14C13.0001 17.52 13.2501 17.88 13.4901 18.2C13.6201 18.37 13.7401 18.53 13.8701 18.69C13.9801 18.82 14.0801 18.95 14.1801 19.07H12.7901C12.8901 18.95 12.9901 18.83 13.1001 18.69C12.8601 18.38 12.6101 18.03 12.3701 17.66C11.8501 18.34 11.3801 18.83 11.1501 19.06H7.68005V20.26H19.6101V19.06H15.8001C15.5601 18.82 15.1001 18.33 14.5801 17.66C14.4501 17.5 14.3301 17.32 14.2001 17.14C13.9501 16.79 13.7101 16.41 13.4701 15.99C13.3501 15.78 13.2401 15.56 13.1301 15.34C12.4301 13.87 12.0201 12.14 12.6001 10.43C12.6201 10.37 12.6401 10.3 12.6701 10.24C12.7101 10.12 12.7701 10 12.8301 9.88001C12.9001 9.74001 12.9701 9.61001 13.0501 9.48001C13.0501 9.47001 13.0601 9.45001 13.0801 9.44001C13.0801 9.44001 13.0801 9.43001 13.0901 9.42001C13.0901 9.42001 13.0901 9.40001 13.1001 9.40001C13.1401 9.34001 13.1801 9.29001 13.2201 9.23001C13.3001 9.12001 13.3801 9.01001 13.4701 8.90001C13.5401 8.81001 13.6201 8.73001 13.7001 8.64001C13.9001 8.44001 14.1101 8.25001 14.3401 8.07001C14.5001 7.95001 14.6601 7.84001 14.8301 7.73001C15.0201 7.61001 15.2201 7.50001 15.4201 7.39001C15.5201 7.34001 15.6101 7.29001 15.7101 7.25001C15.7501 7.23001 15.8001 7.21001 15.8401 7.19001C15.9301 7.15001 16.0201 7.11001 16.1101 7.07001C16.1301 7.07001 16.1501 7.06001 16.1701 7.05001C16.4101 6.95001 16.6601 6.86001 16.9001 6.78001C17.0301 6.74001 17.1601 6.70001 17.2901 6.66001C17.4201 6.62001 17.5501 6.59001 17.6801 6.55001C17.8101 6.51001 17.9401 6.48001 18.0801 6.45001C18.3501 6.39001 18.6201 6.33001 18.8901 6.28001C19.0201 6.26001 19.1501 6.23001 19.2801 6.21001C19.4101 6.19001 19.5501 6.17001 19.6801 6.15001C19.8101 6.13001 19.9301 6.11001 20.0601 6.10001C20.1901 6.08001 20.3101 6.07001 20.4301 6.06001C21.0701 5.99001 21.6601 5.96001 22.1901 5.94001C22.2401 5.94001 22.2801 5.94001 22.3201 5.94001L20.1601 11.06H19.1201V11.66C19.1201 13.81 20.8701 15.56 23.0201 15.56C25.1701 15.56 26.9201 13.81 26.9201 11.66V11.06H26.0301L26.0901 11.08ZM23.1601 7.23001L24.7901 11.08H21.5301L23.1601 7.23001ZM23.0901 14.38C21.8101 14.38 20.7301 13.48 20.4601 12.28H25.7301C25.4601 13.48 24.3801 14.38 23.1001 14.38H23.0901Z" fill="#fff"/>
<path d="M51.1701 1.72998H48.3401V4.64998H51.1701V1.72998Z" fill="#fff"/>
<path d="M47.0401 1.72998H44.2101V4.64998H47.0401V1.72998Z" fill="#fff"/>
<path d="M60.21 19.69H53.73V7.08999H47.34C45.59 7.08999 44.22 7.35999 43.21 7.89999C42.2 8.43999 41.49 9.27999 41.06 10.4C40.63 11.52 40.41 12.95 40.41 14.68C40.41 16.41 40.63 17.8 41.06 18.91C41.49 20.02 42.21 20.85 43.21 21.38C44.21 21.91 45.59 22.18 47.34 22.18H63.01V0.679993H60.21V19.69ZM44.83 19.3C44.24 19.04 43.82 18.55 43.58 17.84C43.34 17.13 43.22 16.08 43.22 14.69C43.22 13.3 43.34 12.21 43.58 11.48C43.82 10.75 44.24 10.26 44.85 9.99999C45.45 9.74999 46.29 9.61999 47.35 9.61999H50.94V19.68H47.35C46.27 19.68 45.43 19.55 44.83 19.29V19.3Z" fill="#fff"/>
<path d="M70.91 0.679993H68.11V22.19H70.91V0.679993Z" fill="#fff"/>
<path d="M127.86 19.69C126.62 18.44 125.99 16.92 125.99 15.11C125.99 14.05 126.21 13.1 126.65 12.28C127.09 11.46 127.71 10.81 128.5 10.34C129.29 9.86997 130.2 9.62997 131.23 9.62997C131.67 9.62997 132.13 9.66997 132.61 9.75997C133.09 9.84997 133.58 9.98997 134.06 10.17L135 7.78997C134.38 7.56997 133.73 7.39997 133.05 7.27997C132.37 7.15997 131.75 7.09997 131.17 7.09997C130.07 7.09997 129.02 7.29997 128.04 7.68997C127.05 8.07997 126.21 8.63997 125.49 9.35997C124.77 10.08 124.21 10.94 123.79 11.92C123.37 12.9 123.16 13.98 123.16 15.14C123.16 16.45 123.44 17.68 124 18.85C124.14 19.14 124.29 19.42 124.46 19.69H120.14H86.7601V15.41C86.7601 13.36 86.4501 11.73 85.8301 10.51C85.2101 9.29997 84.3001 8.41997 83.1201 7.88997C81.9401 7.35997 80.5101 7.08997 78.8401 7.08997H76.4001V9.61997H78.8401C80.1001 9.61997 81.1101 9.79997 81.8501 10.15C82.5901 10.5 83.1301 11.1 83.4601 11.94C83.7901 12.78 83.9601 13.94 83.9601 15.41V19.69H74.9501V22.19H120.15H135.34V19.69H127.86Z" fill="#fff"/>
</g>
<defs>
<clipPath id="clip0_9_2">
<rect width="135.33" height="22.19" fill="white"/>
</clipPath>
</defs>
</svg>
