<?xml version="1.0" encoding="UTF-8"?>
<svg id="Layer_1" data-name="Layer 1" xmlns="http://www.w3.org/2000/svg" viewBox="0 0 60 81">
  <g>
    <path class="cls-1" d="m32.14,43.16c2.04-3.65,3.5-8.33,1.9-13.11-.37-1.12-.9-2.13-1.53-3.03-.66.51-1.25,1.07-1.75,1.71,0,.01.01.03.02.05.01.01.02.02.02.04.02.03.04.06.05.09.16.26.31.53.45.81.11.24.22.48.31.72.05.13.1.25.14.38,1.15,3.44.33,6.92-1.07,9.88.45.89.95,1.71,1.46,2.47Z"/>
    <rect class="cls-1" x="13.29" y="51.94" width="34.09" height="2.41"/>
    <path class="cls-1" d="m18.55,33.23v-1.21h-1.8l-4.34-10.28c1.05.04,2.24.11,3.5.24.25.03.5.05.75.09h.02c.25.03.51.07.77.1.27.04.54.08.81.12.26.04.52.09.79.14.54.1,1.07.21,1.62.34.27.06.53.13.8.2h.01c.27.07.53.14.79.22,1.72.51,3.39,1.19,4.85,2.09.05.03.09.06.14.09h0c.54-.63,1.13-1.21,1.76-1.74-.79-.54-1.63-1.01-2.51-1.43-.28-.13-.55-.25-.83-.37-.89-.38-1.81-.7-2.74-.97-.15-.05-.3-.1-.46-.13-.22-.07-.45-.13-.68-.19h0c-.29-.07-.58-.14-.87-.21h0c-.29-.07-.58-.13-.87-.19-.17-.04-.35-.07-.52-.1-.2-.04-.4-.07-.59-.1-.21-.04-.42-.07-.62-.1h-.01c-.28-.05-.56-.08-.84-.13h-.01c-.28-.04-.55-.07-.83-.1h-.01c-.27-.03-.54-.06-.81-.09h-.01c-.27-.02-.53-.05-.79-.07-.27-.02-.53-.04-.79-.06-.25-.02-.49-.03-.74-.04h-.01c-.24-.01-.48-.02-.71-.03-.24-.01-.47-.02-.69-.02-.22,0-.43,0-.65,0-.21,0-.41,0-.6,0-.95,0-1.72.02-2.26.05-.11,0-.22.01-.31.02-.24.01-.39.02-.45.03l.19,2.41s.03,0,.06,0c.07,0,.2-.01.38-.02.22,0,.53-.02.9-.03l-4.35,10.29h-2.1v1.21c0,4.32,3.52,7.84,7.84,7.84s7.84-3.52,7.84-7.84Zm-7.69-8.95l3.27,7.75h-6.55l3.27-7.75Zm-.15,14.38c-2.58,0-4.74-1.81-5.29-4.22h10.59c-.55,2.41-2.71,4.22-5.29,4.22Z"/>
    <path class="cls-1" d="m55.33,32.02l-4.34-10.28c.23,0,.44.02.6.02.07,0,.13,0,.18.01.05,0,.1,0,.13,0,.07,0,.12.01.13.01l.19-2.41s-.16-.01-.31-.02c-.3-.02-.79-.04-1.43-.06-.1,0-.2,0-.31,0-.63,0-1.37-.01-2.21,0-.11,0-.23,0-.35.01-.23,0-.46.02-.7.02-.24.01-.48.02-.74.04-.48.02-.99.06-1.51.11-.28.02-.57.05-.87.08-.25.03-.51.06-.78.09-.32.04-.65.08-.98.14-.22.03-.45.06-.68.1-.05,0-.1.01-.16.02-.27.04-.53.09-.8.14-.25.04-.49.1-.74.15-.19.04-.38.08-.57.12-.29.07-.58.14-.87.21h0c-.24.06-.49.13-.73.2-1.19.33-2.36.75-3.48,1.25l-.11-.08-6.07-3.89c-.64-.47-1.08-1.15-1.25-1.93-.38-1.75.73-3.48,2.48-3.87,1.75-.38,3.48.73,3.87,2.48l2.36-.51c-.67-3.05-3.69-4.99-6.74-4.32-3.05.67-4.99,3.69-4.32,6.74.3,1.37,1.09,2.57,2.23,3.39l5.11,3.28c-.19.12-.37.23-.55.36-.19.13-.37.26-.55.39-.14.11-.29.22-.43.34-.31.25-.62.52-.91.8-.11.1-.21.21-.31.31-.19.19-.37.39-.54.58-.02.02-.04.04-.05.06-.19.22-.37.45-.55.69-.05.07-.1.13-.14.2-.09.13-.18.26-.27.39-.19.3-.37.61-.54.93-.14.27-.27.55-.39.83-.12.28-.23.58-.33.88-1.6,4.78-.14,9.46,1.9,13.11.22.4.44.78.68,1.15.48.77.98,1.49,1.46,2.13.26.34.51.67.77.98.22.27.43.52.63.75h-2.79c.2-.24.41-.48.63-.75-.48-.63-.98-1.32-1.46-2.07-1.05,1.36-1.98,2.35-2.45,2.82h-6.98v2.41h23.99v-2.41h-7.65c-.47-.47-1.41-1.46-2.45-2.82-.25-.33-.51-.68-.77-1.04-.5-.71-1-1.48-1.46-2.3-.24-.42-.46-.86-.68-1.31-1.41-2.96-2.23-6.44-1.07-9.88.04-.13.09-.25.14-.38.09-.25.2-.49.31-.72.13-.28.28-.55.45-.81.02-.03.03-.06.05-.09,0-.02.01-.03.02-.04.01-.02.02-.04.02-.05.08-.11.16-.23.24-.34.16-.22.33-.45.51-.66.15-.18.3-.35.46-.52.4-.41.83-.79,1.3-1.15.31-.24.65-.47.99-.69h0c.38-.24.78-.47,1.19-.68.19-.1.39-.2.59-.29.09-.04.18-.08.27-.13.18-.08.36-.16.55-.24.04-.02.08-.03.13-.05.48-.2.98-.38,1.48-.54.26-.09.52-.17.79-.25.26-.08.52-.15.78-.22h.01c.27-.07.53-.13.8-.2.54-.13,1.08-.24,1.62-.34.26-.05.52-.1.78-.14.27-.04.54-.08.81-.12.26-.04.51-.07.77-.1h.02c.25-.04.51-.06.75-.09,1.28-.13,2.48-.21,3.54-.24.09,0,.17,0,.26,0l-4.35,10.29h-2.1v1.21c0,4.32,3.52,7.84,7.84,7.84s7.84-3.52,7.84-7.84v-1.21h-1.8Zm-5.89-7.74l3.27,7.74h-6.54l3.27-7.74Zm-.15,14.38c-2.58,0-4.74-1.81-5.29-4.22h10.59c-.55,2.41-2.71,4.22-5.29,4.22Z"/>
  </g>
  <g>
    <rect class="cls-1" x="7.42" y="59.57" width="1.62" height="1.67"/>
    <rect class="cls-1" x="5.06" y="59.57" width="1.62" height="1.67"/>
    <path class="cls-1" d="m14.2,69.83h-3.7v-7.2h-3.65c-1,0-1.78.15-2.36.46s-.98.79-1.23,1.43c-.25.64-.37,1.46-.37,2.44s.12,1.78.37,2.42c.25.64.66,1.11,1.23,1.41s1.36.46,2.36.46h8.95v-12.29h-1.6v10.86Zm-8.79-.22c-.34-.15-.58-.43-.71-.83s-.21-1.01-.21-1.8.07-1.41.21-1.83c.14-.42.38-.7.72-.84.34-.14.82-.22,1.43-.22h2.05v5.75h-2.05c-.62,0-1.1-.07-1.44-.22Z"/>
    <rect class="cls-1" x="18.71" y="58.97" width="1.6" height="12.29"/>
    <path class="cls-1" d="m52.84,69.83c-.71-.71-1.07-1.58-1.07-2.62,0-.61.13-1.15.38-1.62.25-.47.61-.84,1.06-1.11.45-.27.97-.4,1.56-.4.25,0,.52.03.79.08.28.05.55.13.83.23l.53-1.36c-.36-.13-.73-.22-1.11-.29s-.74-.1-1.08-.1c-.63,0-1.23.11-1.79.34-.56.22-1.05.54-1.45.96s-.73.9-.97,1.46c-.24.56-.36,1.18-.36,1.84,0,.75.16,1.45.48,2.12.08.17.17.33.27.48h-2.47s0,0,0,0,0,0,0,0h-19.07v-2.44c0-1.17-.18-2.1-.53-2.8-.36-.69-.87-1.19-1.55-1.5-.68-.3-1.49-.46-2.44-.46h-1.39v1.45h1.39c.72,0,1.3.1,1.72.3.42.2.73.54.92,1.02s.28,1.14.28,1.98v2.44h-5.15v1.43h25.82s0,0,0,0,0,0,0,0h8.68v-1.43h-4.27Z"/>
  </g>
</svg>